<?xml version="1.0" encoding="UTF-8" standalone="no"?>
<svg
   xmlns:dc="http://purl.org/dc/elements/1.1/"
   xmlns:cc="http://creativecommons.org/ns#"
   xmlns:rdf="http://www.w3.org/1999/02/22-rdf-syntax-ns#"
   xmlns:svg="http://www.w3.org/2000/svg"
   xmlns="http://www.w3.org/2000/svg"
   version="1.1"
   id="svg2"
   width="323.09009"
   height="323.09131"
   viewBox="0 0 323.09009 323.09131">
  <metadata
     id="metadata8">
    <rdf:RDF>
      <cc:Work
         rdf:about="">
        <dc:format>image/svg+xml</dc:format>
        <dc:type
           rdf:resource="http://purl.org/dc/dcmitype/StillImage" />
        <dc:title></dc:title>
      </cc:Work>
    </rdf:RDF>
  </metadata>
  <defs
     id="defs6" />
  <g
     id="g10"
     transform="translate(-2.3845309,-1.1223551)">
    <path
       style="fill:#ffffff;stroke:none;stroke-width:0.631579"
       d="m 162.18325,1.2899723 c -4.08632,0.74331 -7.52021,3.89818 -8.6179,7.91228 -1.99515,7.2930897 -0.85579,15.8724597 -0.85579,23.3684197 0,5.33766 -0.63094,11.28916 1.16843,16.42105 1.75263,4.99686 6.99726,7.58381 12.09473,6.81284 4.03453,-0.61017 7.37684,-3.53299 8.49916,-7.44442 2.35389,-8.20263 0.97453,-18.07156 0.97453,-26.52631 0,-4.4916 0.50589,-9.64377 -1.26632,-13.8947397 -1.95284,-4.68351 -6.99537,-7.55893998 -11.99684,-6.64912 M 55.446411,45.500482 c -6.86317,1.2353 -11.14048,9.05425 -7.92202,15.49124 4.60055,9.20084 16.9008,18.17242 24.34308,25.23789 2.95579,2.80611 6.48947,5.04063 10.73684,4.10969 6.82547,-1.49621 10.99642,-9.01137 7.776,-15.45284 -1.61053,-3.22106 -4.63769,-5.70379 -7.14442,-8.21053 -6.37832,-6.37869 -17.508,-23.02592 -27.78948,-21.17545 m 213.473679,0.0385 c -4.25937,0.9336 -7.15516,4.29334 -10.10527,7.24219 -6.45347,6.45075 -17.772,14.2301 -21.32968,22.73684 -3.05874,7.31431 3.17179,16.15579 11.22442,14.94126 9.21221,-1.3901 18.36253,-14.988 24.63158,-21.25705 2.62295,-2.62295 6.14589,-5.3172 7.57326,-8.84211 3.11053,-7.68372 -3.67895,-16.64381 -11.99431,-14.82113 m -106.10526,35.95629 c -17.31727,1.51516 -33.18,5.29452 -47.36842,16.06421 -8.41453,6.387148 -15.536839,14.379788 -20.968419,23.432208 -34.06288,56.77263 13.307999,128.64252 78.442099,122.41894 40.5341,-3.87284 72.41684,-40.32126 72.41684,-80.73474 0,-42.28863 -38.01853,-85.075568 -82.5221,-81.180618 m 1.26315,22.172838 c 51.1459,0 78.71053,64.03136 42.31327,100.69136 -5.11263,5.1499 -11.01158,9.29874 -17.68169,12.17684 -7.85621,3.39032 -16.05915,5.14737 -24.63158,5.14737 -51.14589,0 -78.710509,-64.03136 -42.31326,-100.69136 5.29137,-5.3299 11.39811,-9.5179 18.31327,-12.45284 7.644,-3.24443 15.68778,-4.87137 23.99999,-4.87137 M 13.762211,151.57779 c -9.9283098,1.43874 -16.7708398,15.05305 -5.6749598,20.76884 4.0992298,2.11137 9.4248298,1.69769 13.8854798,1.69769 8.77232,0 18.57417,1.21263 27.1579,-0.82169 9.35879,-2.21747 11.26894,-15.77052 2.52385,-20.21747 -4.12207,-2.09621 -9.4147,-1.69769 -13.89228,-1.69769 -7.83606,0 -16.23978,-0.85389 -23.99999,0.27032 m 268.421029,0 c -10.02884,1.44063 -17.0741,14.97537 -5.68168,20.76884 4.12168,2.09621 9.41432,1.69769 13.89221,1.69769 8.56232,0 18.13768,1.18736 26.52633,-0.7099 10.02378,-2.26737 11.71578,-15.82926 2.52631,-20.47579 -3.93095,-1.98758 -9.00127,-1.55116 -13.26317,-1.55116 -7.83979,0 -16.23536,-0.84505 -24,0.27032 M 78.814831,235.01252 c -9.0221,1.97748 -17.70157,14.83895 -23.99999,21.13706 -2.62314,2.62294 -6.14609,5.31726 -7.57308,8.8421 -3.01547,7.44884 3.24335,16.1659 11.36255,14.94126 4.26954,-0.64421 7.20189,-3.83242 10.10526,-6.73073 6.62274,-6.61137 18.31453,-14.64884 21.96126,-23.36842 3.15916,-7.55432 -3.60947,-16.62884 -11.856,-14.82127 m 166.736839,-0.0391 c -7.25811,1.28336 -11.38863,8.73852 -8.17895,15.492 1.66105,3.49452 4.85937,6.1541 7.54737,8.8421 6.35558,6.35621 17.39873,22.85874 27.78947,20.50737 6.84126,-1.548 10.76211,-9.08842 7.57895,-15.45474 -4.596,-9.192 -16.03642,-17.50863 -23.36842,-24.6221 -3.13453,-3.04105 -6.78884,-5.57369 -11.36842,-4.76463 m -84.63158,34.84231 c -3.50337,1.01305 -6.22989,3.67074 -7.236,7.176 -2.35389,8.20232 -0.97453,18.07137 -0.97453,26.52632 0,4.49178 -0.50589,9.64357 1.26632,13.89473 2.15305,5.16379 7.91495,7.94779 13.26,6.35179 3.51726,-1.05031 6.38968,-4.08631 7.35474,-7.61495 2.19536,-8.02547 0.85579,-17.63873 0.85579,-25.89473 0,-4.70526 0.48189,-10.08379 -1.40716,-14.52569 -2.11705,-4.97873 -8.00084,-7.39263 -13.11916,-5.91347 z"
       id="path837" />
  </g>
</svg>
