<?xml version="1.0" encoding="UTF-8" standalone="no"?>
<svg
   xmlns:dc="http://purl.org/dc/elements/1.1/"
   xmlns:cc="http://creativecommons.org/ns#"
   xmlns:rdf="http://www.w3.org/1999/02/22-rdf-syntax-ns#"
   xmlns:svg="http://www.w3.org/2000/svg"
   xmlns="http://www.w3.org/2000/svg"
   version="1.1"
   id="svg2"
   width="565.37964"
   height="598.18268"
   viewBox="0 0 565.37964 598.18268">
  <metadata
     id="metadata8">
    <rdf:RDF>
      <cc:Work
         rdf:about="">
        <dc:format>image/svg+xml</dc:format>
        <dc:type
           rdf:resource="http://purl.org/dc/dcmitype/StillImage" />
        <dc:title></dc:title>
      </cc:Work>
    </rdf:RDF>
  </metadata>
  <defs
     id="defs6" />
  <g
     id="g10"
     transform="translate(-16.688662,22.13172)">
    <path
       style="fill:#010101;stroke:none;stroke-width:1.17073"
       d="m 582.06829,408.15768 c -45.94654,15.54381 -90.77971,24.45893 -139.31707,14.69385 -29.90868,-6.01756 -57.168,-17.59843 -83.12195,-33.42907 -22.97327,-14.01249 -43.74556,-33.55083 -59.856,-55.02087 -61.3077,-81.70302 -65.00253,-193.06887 -6.03161,-277.463412 21.86342,-31.28921 49.93288,-55.1267098 82.27785,-74.92683 -9.30848,-4.17862 -22.69697,-3.39676 -32.78048,-3.51669 -16.55064,-0.1969 -32.5721,-1.2434 -49.17073,-0.10029 -97.89424,6.74156 -190.57919,62.56285 -238.99187,148.787712 -88.01748,156.76214 -19.46529,365.6593 152.35773,429.71706 27.30263,10.17834 56.28292,17.39473 85.46341,18.71883 54.5959,2.47844 107.4755,-5.43454 156.87804,-30.19551 56.7477,-28.44293 107.67921,-78.144 132.29268,-137.26478 z"
       id="path837" />
  </g>
</svg>
